<svg xmlns="http://www.w3.org/2000/svg" width="104" height="22" viewBox="0 0 104 22" fill="none"><g clip-path="url(#clip0_3110_15461)"><path d="M33.2136 1.74188C33.2136 0.779493 32.4451 0 31.4963 0C30.5476 0 29.7791 0.779493 29.7791 1.74188C29.7791 4.18488 27.8193 6.1728 25.4109 6.1728C24.4106 6.1728 23.4704 5.83967 22.6912 5.21041C21.9485 4.61164 20.8688 4.73575 20.2785 5.48694C19.6882 6.2403 19.8105 7.33551 20.5511 7.93428C21.4128 8.63106 22.414 9.13005 23.4758 9.40539C23.8774 9.50952 24.1614 9.89855 24.0673 10.3099C22.9939 15.0049 18.8371 18.5162 13.886 18.5162C8.12255 18.5162 3.43448 13.7609 3.43448 7.91469C3.43448 6.9523 2.66602 6.1728 1.71724 6.1728C0.768465 6.1728 0 6.9523 0 7.91469C0 15.6813 6.22929 22 13.886 22C20.9078 22 26.7289 16.6841 27.6451 9.81164C27.6858 9.50641 27.8929 9.25042 28.1755 9.14144C31.116 8.00746 33.2136 5.1173 33.2136 1.74188Z" fill="#121A52"></path><path d="M10.4301 9.66964C10.4301 9.66964 10.4516 9.66964 10.4623 9.66964C11.8168 9.66964 12.7033 8.46774 12.802 8.33056C13.1476 7.84283 13.0403 7.02197 12.5573 6.67142C12.0765 6.32086 11.4089 6.42973 11.0633 6.91746C10.9302 7.09818 10.6319 7.49228 10.4623 7.49228H10.458C10.3764 7.49228 10.1661 7.37688 9.8913 6.96318C9.55859 6.46457 8.89101 6.33611 8.4016 6.67142C7.91004 7.00891 7.78124 7.68607 8.11396 8.1825C8.92321 9.39529 9.82047 9.66093 10.4322 9.66964H10.4301Z" fill="#121A52"></path><path d="M46.3851 17.8039C45.5233 17.8039 44.765 17.2239 44.5244 16.3805L42.0831 7.82345C41.6961 6.46705 42.6946 5.11162 44.0807 5.11162C44.4038 5.11162 44.6841 5.339 44.7565 5.65987L46.4806 13.2978C46.4979 13.3743 46.5648 13.4286 46.6418 13.4286C46.7181 13.4286 46.7845 13.3754 46.8026 13.2998L48.2754 7.13304C48.5587 5.94666 49.6015 5.11162 50.7997 5.11162C51.1934 5.11162 51.5375 5.38222 51.6373 5.77029L53.5802 13.3214C53.5993 13.3955 53.665 13.4471 53.7402 13.4471C53.8183 13.4471 53.8858 13.3914 53.9019 13.3134L55.1569 7.2495C55.4147 6.00343 56.4937 5.11162 57.7434 5.11162C58.3303 5.11162 58.7532 5.68541 58.5896 6.25982L55.7039 16.3916C55.4655 17.2283 54.7134 17.8039 53.8585 17.8039C52.9979 17.8039 52.2423 17.2209 52.0089 16.3768L50.355 10.395C50.3343 10.3201 50.2673 10.2683 50.1909 10.2683C50.1158 10.2683 50.0495 10.3184 50.0277 10.3917L48.2395 16.4022C47.9918 17.2347 47.2387 17.8039 46.3851 17.8039Z" fill="#121A52"></path><path d="M60.9109 17.8039C60.4957 17.8039 60.1591 17.4609 60.1591 17.0377V7.41017C60.1591 6.14071 61.1689 5.11162 62.4147 5.11162C62.8299 5.11162 63.1665 5.45465 63.1665 5.8778V9.1482C63.1665 9.73235 63.6312 10.2059 64.2045 10.2059H66.8198C67.51 10.2059 68.0696 9.6357 68.0696 8.93233V7.40552C68.0696 6.13864 69.0774 5.11162 70.3206 5.11162C70.735 5.11162 71.0709 5.45396 71.0709 5.87626V15.51C71.0709 16.7769 70.0631 17.8039 68.8199 17.8039C68.4055 17.8039 68.0696 17.4616 68.0696 17.0393V13.7611C68.0696 13.177 67.6049 12.7035 67.0317 12.7035H64.4178C63.7267 12.7035 63.1665 13.2743 63.1665 13.9786V15.5054C63.1665 16.7748 62.1567 17.8039 60.9109 17.8039Z" fill="#121A52"></path><path fill-rule="evenodd" clip-rule="evenodd" d="M76.4279 15.2679L75.902 16.9231H75.9035C75.6541 17.4554 75.1238 17.8039 74.5324 17.8039C73.4931 17.8039 72.7605 16.7645 73.0925 15.7609L75.6558 8.0114C76.229 6.27852 77.8234 5.11162 79.6179 5.11162C80.216 5.11162 80.7475 5.50059 80.9385 6.07821L84.145 15.772C84.4752 16.7701 83.7465 17.8039 82.7129 17.8039C82.1001 17.8039 81.5542 17.4279 81.3204 16.8625L80.5954 14.302C80.5029 13.9751 80.2093 13.75 79.8755 13.75H78C77.3503 13.75 76.7746 14.1768 76.5743 14.807L76.4716 15.1303L76.4702 15.1303L76.4279 15.2679ZM78.8575 8.43533L80.0305 12.4644C79.8499 11.8467 79.2925 11.4231 78.6598 11.4231C78.0345 11.4231 77.4818 11.837 77.295 12.4451L78.5274 8.43282C78.5499 8.35944 78.6166 8.30949 78.6921 8.30949C78.7685 8.30949 78.8358 8.36069 78.8575 8.43533Z" fill="#121A52"></path><path d="M88.025 17.8039C86.8786 17.8039 85.9492 16.8568 85.9492 15.6885V7.41017C85.9492 6.14071 86.9591 5.11162 88.2048 5.11162C88.62 5.11162 88.9566 5.45465 88.9566 5.8778V13.5542C88.9566 14.5253 89.7292 15.3126 90.6821 15.3126H92.9107C93.5858 15.3126 94.1331 15.8703 94.1331 16.5582C94.1331 17.2462 93.5858 17.8039 92.9107 17.8039H88.025Z" fill="#121A52"></path><path d="M95.324 13.5732C95.324 15.9097 97.1828 17.8039 99.4757 17.8039H102.778C103.453 17.8039 104 17.2462 104 16.5582C104 15.8703 103.453 15.3126 102.778 15.3126H99.1849C98.7135 15.3126 98.3314 14.9232 98.3314 14.4429C98.3314 13.4822 99.0956 12.7035 100.038 12.7035H102.331C103.008 12.7035 103.556 12.1444 103.556 11.4547C103.556 10.765 103.008 10.2059 102.331 10.2059H99.1828C98.7126 10.2059 98.3314 9.81744 98.3314 9.33826C98.3314 8.37989 99.0938 7.60298 100.034 7.60298H102.778C103.453 7.60298 104 7.04527 104 6.3573C104 5.66933 103.453 5.11162 102.778 5.11162H97.3998C96.2534 5.11162 95.324 6.05871 95.324 7.22701V13.5732Z" fill="#121A52"></path></g><defs><clipPath id="clip0_3110_15461"><rect width="104" height="22" fill="white"></rect></clipPath></defs></svg>